<?xml version="1.0" encoding="UTF-8"?>
<svg xmlns="http://www.w3.org/2000/svg" viewBox="0 0 150 119.9" role="img" aria-label="Viboard">
  <defs>
    <style>
      .st0 { fill: #6c5cff; }
    </style>
  </defs>
  <path class="st0" d="M22.3,1.8H7.6c-2.9,0-5.1,2.4-5.1,5.2v15.1c0,2.9,2.2,5.7,5.1,5.7h14.7c2.9,0,5.7-2.3,5.7-5.2V7.5c0-2.9-2.7-5.7-5.7-5.7Z"/>
  <path class="st0" d="M22.6,31.4H7.5c-2.8,0-5,2.2-5,5.2v16.2c0,2.8,2.2,5.3,5,5.3h14.8c3,0,5.7-2.2,5.7-5.3v-16.2c0-2.9-2.4-5.2-5.4-5.2Z"/>
  <path class="st0" d="M52.7,31.4h-15.7c-2.7,0-5.5,2.2-5.5,5.2v16.2c0,2.8,2.7,5.3,5.5,5.3h15.7c2.9,0,5.3-2.2,5.3-5.3v-16.2c0-2.8-2.4-5.2-5.3-5.2Z"/>
  <path class="st0" d="M52.6,61.9h-15.6c-2.8,0-5.5,2.2-5.5,5.2v14.9c0,2.8,2.7,5.7,5.5,5.7h15.6c2.9,0,5.4-2.5,5.4-5.3v-15.3c0-2.9-2.5-5.2-5.4-5.2h0Z"/>
  <path class="st0" d="M82.1,91.8h-14.7c-2.9,0-5.2,2.3-5.2,5.3v15c0,2.8,2.3,5.4,5.2,5.4h14.7c2.8,0,5.5-2.3,5.5-5.4v-15c0-2.8-2.5-5.3-5.5-5.3Z"/>
  <path class="st0" d="M82.1,61.9h-14.7c-2.9,0-5.2,2.3-5.2,5.3v15c0,2.8,2.3,5.4,5.2,5.4h14.7c2.8,0,5.5-2.3,5.5-5.4v-15c0-2.8-2.5-5.3-5.5-5.3Z"/>
  <path class="st0" d="M112.9,31.4h-15.5c-2.8,0-5.3,2.2-5.3,5.2v16.2c0,2.8,2.4,5.3,5.3,5.3h15.5c2.8,0,5.1-2.2,5.1-5.3v-16.2c0-2.9-2.3-5.2-5.1-5.2Z"/>
  <path class="st0" d="M112.8,61.9h-15.4c-2.8,0-5.3,2.2-5.3,5.2v14.9c0,2.8,2.5,5.7,5.3,5.7h15.4c2.8,0,5.2-2.5,5.2-5.3v-15.3c0-2.9-2.4-5.2-5.2-5.2h0Z"/>
  <path class="st0" d="M142.3,1.8h-14.7c-2.8,0-5.6,2.3-5.6,5.2v16.1c0,2.8,2.8,4.7,5.6,4.7h14.7c2.8,0,5.1-1.9,5.1-4.7V7c0-2.8-2.3-5.2-5.1-5.2Z"/>
  <path class="st0" d="M142.4,31.4h-14.8c-3,0-5.6,2.2-5.6,5.2v16.2c0,2.8,2.6,5.3,5.6,5.3h14.8c2.8,0,5-2.2,5-5.3v-16.2c0-2.9-2.2-5.2-5-5.2Z"/>
</svg>
