<?xml version="1.0" encoding="UTF-8"?>
<svg xmlns="http://www.w3.org/2000/svg" viewBox="0 0 160 35" role="img" aria-label="Viboard">
  <defs>
    <style>
      .st0 { fill: url(#linear-gradient); }
      .st1 { fill: #6c5cff; }
    </style>
    <linearGradient id="linear-gradient" x1="50.8" y1="18.5" x2="158.1" y2="18.5" gradientTransform="translate(0 36) scale(1 -1)" gradientUnits="userSpaceOnUse">
      <stop offset="0" stop-color="#14171e"/>
      <stop offset="1" stop-color="#11141c"/>
    </linearGradient>
  </defs>
  <g>
    <polygon class="st0" points="61.1 23 54.6 7.5 50.8 7.5 59.3 27.5 62.6 27.5 70.8 7.5 67.4 7.5 61.1 23"/>
    <rect class="st0" x="73" y="13" width="3.2" height="14.4"/>
    <path class="st0" d="M87.7,12.5c-1.8,0-3.4.6-5,1.5v-6.5h-2.7v12.8c0,4.1,3,7.2,7.4,7.2s8-3,8-7.4-3.4-7.6-7.7-7.6ZM87.5,24.8c-2.4,0-4.8-1.9-4.8-4.7s2-4.8,4.8-4.8,5,1.9,5,4.7-2.1,4.8-5,4.8Z"/>
    <path class="st0" d="M74.8,7.5h-.4c-.9,0-1.3.6-1.3,1.3v.7c0,.8.6,1.3,1.3,1.3h.8c.6,0,1.2-.6,1.2-1.3v-.7c0-.7-.6-1.3-1.6-1.3Z"/>
    <path class="st0" d="M134.7,18v9.4h3.2v-9.1c0-1.3.9-2.7,2.9-2.7h2v-2.9h-2.1c-3,0-6,1.9-6,5.3Z"/>
    <path class="st0" d="M155.4,7.5v6.8c-.9-.8-2.4-1.8-4.5-1.8-4.5,0-7.4,3.3-7.4,7.7s3.3,7.4,7.5,7.4,7.3-3.2,7.3-7.4V7.5h-2.9ZM151,24.8c-2.9.3-4.7-1.8-4.7-4.6s2.1-4.9,4.7-4.9,4.6,2.2,4.6,4.7-1.7,4.6-4.6,4.8Z"/>
    <path class="st0" d="M127.9,14.3c-1-1-2.5-1.9-4.8-1.9-4.1,0-7.8,3-7.8,7.6s3.4,7.5,7.4,7.5,3.9-.8,5.2-1.8v1.5h3v-14.3h-3v1.4ZM123.1,25c-2.7,0-4.9-2.1-4.9-4.9s2-4.7,4.9-4.7,4.8,1.7,4.8,4.8-2.3,4.8-4.8,4.8Z"/>
    <path class="st0" d="M105.3,12.5c-4.1,0-7.7,3-7.7,7.6s3,7.4,7.6,7.4,8-3.2,8-7.4c0-4.2-3.3-7.6-7.9-7.6ZM105.3,24.8c-2.4,0-4.8-1.9-4.8-4.8s2.1-4.7,4.8-4.7,5.1,1.9,5.1,4.7-2.3,4.8-5.1,4.8Z"/>
  </g>
  <g>
    <path class="st1" d="M7.5,2.7h-3.8c-.7,0-1.3.6-1.3,1.3v3.9c0,.7.6,1.5,1.3,1.5h3.8c.7,0,1.5-.6,1.5-1.3v-3.9c0-.7-.7-1.5-1.5-1.5Z"/>
    <path class="st1" d="M7.5,10.3h-3.9c-.7,0-1.3.6-1.3,1.3v4.2c0,.7.6,1.4,1.3,1.4h3.8c.8,0,1.5-.6,1.5-1.4v-4.2c0-.7-.6-1.3-1.4-1.3Z"/>
    <path class="st1" d="M15.2,10.3h-4c-.7,0-1.4.6-1.4,1.3v4.2c0,.7.7,1.4,1.4,1.4h4c.7,0,1.4-.6,1.4-1.4v-4.2c0-.7-.6-1.3-1.4-1.3Z"/>
    <path class="st1" d="M15.2,18.1h-4c-.7,0-1.4.6-1.4,1.3v3.8c0,.7.7,1.5,1.4,1.5h4c.7,0,1.4-.6,1.4-1.4v-3.9c0-.7-.6-1.3-1.4-1.3h0Z"/>
    <path class="st1" d="M22.8,25.7h-3.8c-.7,0-1.3.6-1.3,1.4v3.8c0,.7.6,1.4,1.3,1.4h3.8c.7,0,1.4-.6,1.4-1.4v-3.8c0-.7-.6-1.4-1.4-1.4Z"/>
    <path class="st1" d="M22.8,18.1h-3.8c-.7,0-1.3.6-1.3,1.4v3.8c0,.7.6,1.4,1.3,1.4h3.8c.7,0,1.4-.6,1.4-1.4v-3.8c0-.7-.6-1.4-1.4-1.4Z"/>
    <path class="st1" d="M30.7,10.3h-4c-.7,0-1.4.6-1.4,1.3v4.2c0,.7.6,1.4,1.4,1.4h4c.7,0,1.3-.6,1.3-1.4v-4.2c0-.7-.6-1.3-1.3-1.3Z"/>
    <path class="st1" d="M30.7,18.1h-3.9c-.7,0-1.4.6-1.4,1.3v3.8c0,.7.6,1.5,1.4,1.5h3.9c.7,0,1.3-.6,1.3-1.4v-3.9c0-.7-.6-1.3-1.3-1.3h0Z"/>
    <path class="st1" d="M38.2,2.7h-3.8c-.7,0-1.4.6-1.4,1.3v4.1c0,.7.7,1.2,1.4,1.2h3.8c.7,0,1.3-.5,1.3-1.2v-4.1c0-.7-.6-1.3-1.3-1.3Z"/>
    <path class="st1" d="M38.2,10.3h-3.8c-.8,0-1.4.6-1.4,1.3v4.2c0,.7.7,1.4,1.4,1.4h3.8c.7,0,1.3-.6,1.3-1.4v-4.2c0-.7-.6-1.3-1.3-1.3Z"/>
  </g>
</svg>
